<svg width="117" height="38" viewBox="0 0 117 38" fill="none" xmlns="http://www.w3.org/2000/svg">
<path d="M16.704 23.648C15.952 24.512 15.024 25.2 13.92 25.712C12.816 26.208 11.544 26.456 10.104 26.456C8.792 26.456 7.576 26.24 6.456 25.808C5.352 25.376 4.392 24.768 3.576 23.984C2.76 23.184 2.12 22.232 1.656 21.128C1.192 20.024 0.96 18.808 0.96 17.48C0.96 16.12 1.192 14.888 1.656 13.784C2.136 12.68 2.792 11.744 3.624 10.976C4.456 10.192 5.432 9.592 6.552 9.176C7.672 8.76 8.88 8.552 10.176 8.552C11.376 8.552 12.552 8.768 13.704 9.2C14.872 9.616 15.816 10.232 16.536 11.048L13.752 13.832C13.368 13.304 12.864 12.912 12.24 12.656C11.616 12.4 10.976 12.272 10.32 12.272C9.6 12.272 8.936 12.408 8.328 12.68C7.736 12.936 7.224 13.296 6.792 13.76C6.36 14.224 6.024 14.776 5.784 15.416C5.544 16.04 5.424 16.728 5.424 17.48C5.424 18.248 5.544 18.952 5.784 19.592C6.024 20.232 6.352 20.784 6.768 21.248C7.2 21.696 7.712 22.048 8.304 22.304C8.896 22.56 9.544 22.688 10.248 22.688C11.064 22.688 11.776 22.528 12.384 22.208C12.992 21.888 13.48 21.472 13.848 20.96L16.704 23.648ZM63.8709 26L63.9669 13.976H63.8949L59.4789 26H56.5989L52.3029 13.976H52.2309L52.3269 26H48.4629V9.008H54.2949L58.1589 19.904H58.2549L61.9509 9.008H67.8789V26H63.8709ZM77.3848 26V9.008H88.8088V12.488H81.3448V15.68H88.4008V18.968H81.3448V22.496H89.2408V26H77.3848ZM104.649 12.512V26H100.545V12.512H95.745V9.008H109.449V12.512H104.649Z" fill="white"/>
<g clip-path="url(#clip0)">
<path d="M22.1348 16.546C21.2286 14.745 20.0429 13.1117 18.6222 11.6912C18.4321 11.5009 18.3538 11.2213 18.4096 10.9416C18.4768 10.6732 18.6669 10.4606 18.9242 10.3823L21.5306 9.52086C20.0876 5.52728 18.0749 2.9328 17.0904 1.16538C16.9114 0.852068 17.0122 0.482929 17.247 0.248098C17.482 0.01306 17.8512 -0.0874645 18.1643 0.0915432C19.999 1.12048 22.5486 3.08853 26.5198 4.53172L27.3812 1.92508C27.4708 1.67913 27.6834 1.46654 27.9407 1.41072C28.2202 1.35469 28.5 1.43297 28.6901 1.62331C30.1108 3.04383 31.7441 4.22973 33.5451 5.13589C38.8252 7.8653 39.3958 7.85417 40.9955 9.45391C45.0002 13.4586 45.0002 19.9917 40.9955 23.9964C36.9906 28.0013 30.4575 28.0013 26.4528 23.9964C24.5958 22.1394 24.473 20.8307 22.1348 16.546V16.546Z" fill="#FF641A"/>
<path d="M26.4538 23.9963C30.4585 28.001 36.9915 28.0012 40.9965 23.9963L17.2482 0.248016C17.0131 0.483054 16.9126 0.852193 17.0916 1.1653C18.0758 2.93293 20.0886 5.5272 21.5318 9.52078L18.9252 10.3822C18.6679 10.4605 18.4779 10.6731 18.4108 10.9417C18.3548 11.2213 18.433 11.501 18.6234 11.6911C20.0439 13.1119 21.2298 14.745 22.136 16.5462C24.474 20.8306 24.5968 22.1393 26.4538 23.9963V23.9963Z" fill="#F03800"/>
<path d="M27.1025 19.3203L36.3203 10.1025L32.1253 7.96597C31.4428 7.61908 30.7717 7.23882 30.1341 6.82477C29.9104 6.69067 29.6642 6.66821 29.4294 6.7467C29.2057 6.8361 29.0267 7.01511 28.9371 7.23882L28.5121 8.53637L25.5588 7.55193C25.2791 7.4514 24.9659 7.56326 24.7645 7.76451C24.5632 7.96597 24.4512 8.27908 24.5519 8.55882L25.5363 11.5122L24.2388 11.9371C24.0151 12.0267 23.8247 12.2169 23.7465 12.4294C23.6682 12.6643 23.6904 12.9104 23.8247 13.1341C24.2388 13.7719 24.619 14.443 24.9659 15.1255L27.1025 19.3203Z" fill="#F03800"/>
<path d="M27.1025 19.3204L31.7114 14.7117L24.7645 7.76472C24.5632 7.96598 24.4512 8.27909 24.5519 8.55904L25.5364 11.5122L24.2388 11.9373C24.0151 12.0267 23.8248 12.2169 23.7465 12.4295C23.6682 12.6645 23.6904 12.9107 23.8248 13.1342C24.2388 13.7719 24.6191 14.443 24.966 15.1255L27.1025 19.3204Z" fill="#CD0000"/>
<path d="M27.1026 19.3203C26.0959 16.7697 26.6328 13.7494 28.691 11.6912C30.7495 9.63268 33.7698 9.09586 36.3204 10.1028C36.7903 10.3712 37.6962 10.6284 38.7591 11.6912C41.5332 14.4655 41.5332 18.985 38.7591 21.7591C35.9848 24.5334 31.4653 24.5334 28.691 21.7591C27.7962 20.8642 27.5389 20.204 27.1026 19.3203V19.3203Z" fill="#714C2F"/>
<path d="M28.6912 21.7591C31.4653 24.5334 35.9848 24.5334 38.7592 21.7591L28.6912 11.6912C26.6327 13.7495 26.0959 16.7697 27.1026 19.3204C27.5389 20.2041 27.7962 20.8643 28.6912 21.7591V21.7591Z" fill="#523522"/>
<path d="M36.1637 22.7657C36.4657 23.0679 36.9692 23.079 37.2823 22.7657C37.7746 22.2736 38.0094 21.6136 37.9647 20.9647C37.9423 20.4054 37.7074 19.8348 37.2823 19.4097C36.846 18.9734 36.2867 18.7499 35.7274 18.7274C35.0785 18.6827 34.4185 18.9176 33.9264 19.4097C33.6131 19.723 33.6131 20.2153 33.9264 20.5284C34.2284 20.8304 34.7316 20.8417 35.045 20.5284C35.3581 20.2153 35.8504 20.2153 36.1637 20.5284C36.4657 20.8304 36.4768 21.3339 36.1637 21.647C35.8504 21.9605 35.8504 22.4526 36.1637 22.7657V22.7657Z" fill="#895D3C"/>
<path d="M33.1658 17.2845C33.4789 17.5976 33.9712 17.5976 34.2843 17.2845C34.5976 16.9711 34.5976 16.479 34.2843 16.1657C33.9712 15.8526 33.9712 15.3603 34.2843 15.0472C34.5976 14.7338 35.0898 14.7338 35.4031 15.0472C35.7162 15.3603 35.7162 15.8526 35.4031 16.1657C35.0898 16.479 35.0898 16.9711 35.4031 17.2845C35.7162 17.5976 36.2085 17.5976 36.5216 17.2845C37.4502 16.3558 37.45 14.8568 36.5216 13.9284C35.5932 13 34.0942 13 33.1656 13.9284C32.7295 14.3647 32.5056 14.924 32.4833 15.4835C32.4386 16.1321 32.6735 16.7921 33.1658 17.2845Z" fill="#895D3C"/>
<path d="M30.9286 18.403C31.2374 18.0942 31.7384 18.0942 32.0472 18.403C32.3562 18.712 32.3562 19.2128 32.0472 19.5217C31.7384 19.8305 31.2374 19.8305 30.9286 19.5217C30.6197 19.2128 30.6197 18.712 30.9286 18.403V18.403Z" fill="#714C2F"/>
<path d="M29.8099 15.047C30.1189 14.7382 30.6196 14.7382 30.9284 15.047C31.2374 15.3559 31.2374 15.8567 30.9284 16.1657C30.6196 16.4747 30.1189 16.4747 29.8099 16.1657C29.5009 15.8567 29.5009 15.3559 29.8099 15.047Z" fill="#714C2F"/>
<path d="M34.2844 17.2844L32.4832 15.4834C32.4385 16.1321 32.6733 16.7921 33.1657 17.2844C33.4788 17.5976 33.9711 17.5976 34.2844 17.2844Z" fill="#714C2F"/>
<path d="M36.1637 22.7657C36.4657 23.0679 36.9692 23.0791 37.2823 22.7657C37.7746 22.2736 38.0094 21.6136 37.9647 20.9647L35.7274 18.7274C35.0785 18.6827 34.4185 18.9176 33.9264 19.4099C33.6131 19.723 33.6131 20.2153 33.9264 20.5284C34.2284 20.8306 34.7319 20.8418 35.045 20.5284C35.3583 20.2153 35.8504 20.2153 36.1637 20.5284C36.4657 20.8306 36.4768 21.3339 36.1637 21.6472C35.8504 21.9605 35.8504 22.4526 36.1637 22.7657Z" fill="#714C2F"/>
</g>
<defs>
<clipPath id="clip0">
<rect width="27" height="27" transform="matrix(-1 0 0 1 44 0)" fill="white"/>
</clipPath>
</defs>
</svg>
