<svg width="669" height="755" viewBox="0 0 669 755" fill="none" xmlns="http://www.w3.org/2000/svg">
<g clip-path="url(#clip0)">
<g opacity="0.7">
<path opacity="0.7" d="M412.374 589.189C414.534 585.54 413.327 580.831 409.678 578.672C406.029 576.512 401.32 577.719 399.161 581.368C397.001 585.017 398.208 589.726 401.857 591.885C405.506 594.045 410.215 592.838 412.374 589.189Z" fill="url(#paint0_linear)"/>
</g>
<path opacity="0.2" d="M412.078 589.013C414.14 585.529 412.987 581.031 409.502 578.968C406.017 576.906 401.52 578.059 399.457 581.543C397.395 585.028 398.548 589.526 402.032 591.589C405.517 593.651 410.015 592.498 412.078 589.013Z" fill="black"/>
<path d="M258.272 546.041C259.071 544.693 258.625 542.953 257.276 542.154C255.928 541.356 254.187 541.802 253.389 543.151C252.591 544.499 253.037 546.24 254.386 547.038C255.734 547.836 257.474 547.39 258.272 546.041Z" fill="white"/>
<path d="M503.136 455.655C503.934 454.306 503.488 452.566 502.14 451.768C500.791 450.97 499.051 451.416 498.253 452.764C497.454 454.113 497.901 455.853 499.249 456.651C500.598 457.449 502.338 457.003 503.136 455.655Z" fill="white"/>
<path d="M453.579 565.318C454.025 564.564 453.776 563.592 453.022 563.146C452.269 562.7 451.296 562.949 450.85 563.703C450.404 564.456 450.654 565.429 451.407 565.875C452.161 566.321 453.133 566.071 453.579 565.318Z" fill="white"/>
<path d="M566.325 224.115C566.771 223.361 566.522 222.389 565.768 221.943C565.015 221.497 564.042 221.746 563.596 222.5C563.15 223.253 563.399 224.226 564.153 224.672C564.906 225.118 565.879 224.868 566.325 224.115Z" fill="white"/>
<path d="M397.571 229.607C398.018 228.853 397.768 227.88 397.015 227.434C396.261 226.988 395.289 227.238 394.843 227.991C394.397 228.745 394.646 229.717 395.399 230.163C396.153 230.609 397.125 230.36 397.571 229.607Z" fill="white"/>
<path d="M522.878 154.436C523.324 153.683 523.074 152.71 522.321 152.264C521.567 151.818 520.595 152.067 520.149 152.821C519.703 153.575 519.952 154.547 520.706 154.993C521.459 155.439 522.432 155.19 522.878 154.436Z" fill="white"/>
<path d="M203.824 455.628C204.622 454.28 204.176 452.539 202.828 451.741C201.479 450.943 199.739 451.389 198.941 452.738C198.143 454.086 198.589 455.826 199.937 456.625C201.286 457.423 203.026 456.977 203.824 455.628Z" fill="white"/>
<path d="M326.866 619.077L325.579 621.251L323.406 619.964L322.882 620.85L325.055 622.137L323.769 624.31L324.654 624.834L325.941 622.661L328.11 623.944L328.634 623.059L326.465 621.775L327.752 619.602L326.866 619.077Z" fill="white"/>
<path d="M358.214 563.932L356.927 566.106L354.754 564.819L354.229 565.705L356.403 566.991L355.116 569.165L356.002 569.689L357.289 567.516L359.457 568.799L359.982 567.914L357.813 566.63L359.1 564.456L358.214 563.932Z" fill="white"/>
<path d="M448.451 511.966L447.165 514.139L444.991 512.853L444.467 513.738L446.64 515.025L445.354 517.199L446.239 517.723L447.526 515.549L449.695 516.833L450.219 515.947L448.05 514.664L449.337 512.49L448.451 511.966Z" fill="white"/>
<path d="M248.752 246.988L248.166 247.979L247.175 247.392L246.937 247.794L247.928 248.381L247.341 249.372L247.743 249.61L248.33 248.619L249.321 249.206L249.559 248.804L248.568 248.217L249.155 247.226L248.752 246.988Z" fill="white"/>
<path d="M423.314 159.597L422.728 160.588L421.737 160.001L421.498 160.404L422.489 160.99L421.903 161.981L422.305 162.219L422.892 161.228L423.883 161.815L424.121 161.413L423.13 160.826L423.716 159.835L423.314 159.597Z" fill="white"/>
<path d="M433.372 278.04L432.785 279.031L431.794 278.445L431.556 278.847L432.547 279.433L431.96 280.424L432.362 280.662L432.949 279.671L433.94 280.258L434.178 279.856L433.187 279.269L433.774 278.278L433.372 278.04Z" fill="white"/>
<path d="M270.08 639.105L269.493 640.096L268.502 639.509L268.264 639.911L269.255 640.498L268.669 641.489L269.071 641.727L269.657 640.736L270.648 641.323L270.886 640.92L269.895 640.334L270.482 639.343L270.08 639.105Z" fill="white"/>
<path d="M375.556 646.585L374.97 647.576L373.979 646.99L373.741 647.392L374.732 647.979L374.145 648.97L374.547 649.208L375.134 648.217L376.125 648.803L376.363 648.401L375.372 647.814L375.958 646.823L375.556 646.585Z" fill="white"/>
<path d="M194.126 366.581L193.54 367.572L192.549 366.985L192.311 367.387L193.302 367.974L192.715 368.965L193.117 369.203L193.704 368.212L194.695 368.798L194.933 368.396L193.942 367.81L194.529 366.819L194.126 366.581Z" fill="white"/>
<path d="M301.569 511.635L300.982 512.626L299.991 512.04L299.753 512.442L300.744 513.029L300.158 514.02L300.56 514.258L301.146 513.267L302.137 513.853L302.375 513.451L301.384 512.864L301.971 511.873L301.569 511.635Z" fill="white"/>
<path d="M268.047 474.338L267.46 475.329L266.469 474.742L266.231 475.145L267.222 475.731L266.636 476.722L267.038 476.96L267.624 475.969L268.615 476.556L268.853 476.154L267.862 475.567L268.449 474.576L268.047 474.338Z" fill="white"/>
<g opacity="0.7">
<path opacity="0.7" d="M483.55 327.02C485.353 323.974 484.345 320.043 481.299 318.24C478.253 316.437 474.322 317.445 472.519 320.491C470.716 323.537 471.724 327.468 474.77 329.271C477.816 331.074 481.747 330.066 483.55 327.02Z" fill="url(#paint1_linear)"/>
</g>
<path opacity="0.2" d="M483.143 326.779C484.813 323.958 483.879 320.317 481.058 318.647C478.237 316.977 474.596 317.91 472.926 320.732C471.256 323.553 472.189 327.194 475.011 328.864C477.832 330.534 481.473 329.6 483.143 326.779Z" fill="black"/>
<path opacity="0.2" d="M527.847 334.666C529.714 331.512 528.671 327.441 525.516 325.574C522.362 323.707 518.291 324.75 516.424 327.905C514.557 331.059 515.6 335.13 518.755 336.997C521.909 338.864 525.98 337.821 527.847 334.666Z" fill="black"/>
<g opacity="0.7">
<path opacity="0.7" d="M336.851 290.73C324.875 283.588 311.344 279.461 297.421 278.705C290.867 278.375 286.345 278.937 283.341 279.654C282.177 279.919 281.126 280.541 280.335 281.435C279.544 282.328 279.054 283.447 278.932 284.634C278.755 285.536 278.791 286.467 279.036 287.353C280.145 291.378 282.229 295.656 284.706 299.76C292.153 312.037 302.539 322.267 314.928 329.525L322.34 333.912L319.526 338.666L233.344 287.654C215.286 276.965 195.079 270.461 174.588 269.038C164.878 268.359 158.195 269.033 153.782 269.969C152.676 270.177 151.628 270.618 150.707 271.263C149.787 271.908 149.014 272.742 148.441 273.709C147.868 274.677 147.509 275.756 147.386 276.873C147.264 277.991 147.382 279.122 147.731 280.191C149.496 286.045 152.714 292.295 156.503 298.313C167.719 316.194 183.543 331.269 202.129 342.27L287.453 392.775L285.021 396.882L277.251 392.283C264.934 384.922 250.978 380.742 236.641 380.122C231.843 379.938 227.09 380.17 223.037 381.12C221.845 381.387 220.771 382.03 219.971 382.952C219.171 383.875 218.688 385.03 218.592 386.247L218.785 386.129C218.697 386.888 218.755 387.658 218.956 388.396C219.78 391.372 221.458 395.604 224.901 401.191C232.262 413.033 242.389 422.91 254.412 429.973L383.198 506.203L391.881 491.534L401.508 499.418L433.168 518.158L440.27 506.16L408.61 487.42L397.07 482.755L405.628 468.297L288.333 398.868L290.764 394.76L407.552 463.889L414.487 452.174L424.59 460.423L456.25 479.163L463.351 467.165L431.691 448.425L419.585 443.528L428.936 427.729L439.048 435.997L470.708 454.737L477.81 442.739L446.149 423.999L434.043 419.102L439.58 409.747L322.821 340.636L325.635 335.882L443.107 405.415L445.389 401.561L445.211 401.456L452.755 388.712L462.384 396.571L494.045 415.311L501.146 403.313L469.486 384.573L457.946 379.909L465.618 366.949L336.851 290.73Z" fill="url(#paint2_linear)"/>
</g>
<path d="M403.861 481.396L397.137 492.757L384.545 482.563L388.867 475.262L403.861 481.396Z" fill="#535461"/>
<g opacity="0.1">
<path opacity="0.1" d="M389.688 486.37L394.678 477.939L390.49 476.223L386.168 483.524L389.688 486.37Z" fill="black"/>
</g>
<path d="M461.487 384.041L454.765 395.397L442.171 385.208L446.495 377.902L461.487 384.041Z" fill="#535461"/>
<g opacity="0.1">
<path opacity="0.1" d="M447.314 389.014L452.307 380.579L448.118 378.862L443.794 386.168L447.314 389.014Z" fill="black"/>
</g>
<path d="M425.71 444.484L418.988 455.84L406.394 445.651L410.718 438.345L425.71 444.484Z" fill="#535461"/>
<g opacity="0.1">
<path opacity="0.1" d="M411.536 449.458L416.53 441.022L412.341 439.305L408.017 446.611L411.536 449.458Z" fill="black"/>
</g>
<path d="M439.397 421.36L432.676 432.716L420.081 422.527L424.403 415.226L439.397 421.36Z" fill="#535461"/>
<g opacity="0.1">
<path opacity="0.1" d="M425.224 426.334L430.217 417.898L426.026 416.186L421.704 423.487L425.224 426.334Z" fill="black"/>
</g>
<path d="M324.103 324.631L276.081 405.761L279.327 407.683L327.349 326.552L324.103 324.631Z" fill="#535461"/>
<path d="M280.259 281.748C279.532 281.896 278.844 282.195 278.239 282.626C277.635 283.056 277.127 283.609 276.749 284.247C276.371 284.886 276.131 285.597 276.044 286.334C275.958 287.071 276.027 287.818 276.246 288.527C277.368 292.378 279.431 296.483 281.867 300.439C289.244 312.266 299.382 322.124 311.409 329.168L436.288 403.086L457.542 367.179L332.136 292.95C320.5 286.002 307.383 281.909 293.861 281.006C287.52 280.622 283.132 281.089 280.259 281.748Z" fill="#E0E0E0"/>
<path d="M219.312 384.714C219.092 384.005 219.024 383.258 219.11 382.521C219.197 381.784 219.437 381.073 219.815 380.435C220.193 379.796 220.7 379.244 221.305 378.813C221.91 378.382 222.598 378.083 223.325 377.935C227.243 377.061 231.831 376.9 236.475 377.127C250.391 377.907 263.91 382.052 275.873 389.205L400.752 463.122L379.499 499.029L254.093 424.8C242.403 417.941 232.505 408.411 225.208 396.99C221.818 391.622 220.116 387.55 219.312 384.714Z" fill="#E0E0E0"/>
<path d="M256.876 426.169L261.964 417.673L272.468 423.891L267.424 432.412L256.876 426.169Z" fill="#535461"/>
<path d="M272.964 398.99L278.052 390.494L288.556 396.711L283.511 405.233L272.964 398.99Z" fill="#535461"/>
<path d="M313.545 330.432L318.629 321.941L329.133 328.158L324.092 336.675L313.545 330.432Z" fill="#535461"/>
<path d="M329.632 303.253L334.717 294.762L345.22 300.979L340.179 309.496L329.632 303.253Z" fill="#535461"/>
<g opacity="0.1">
<path opacity="0.1" d="M236.312 377.03C231.668 376.803 227.08 376.964 223.162 377.839C222.026 378.068 220.997 378.664 220.233 379.535C219.469 380.406 219.011 381.503 218.931 382.659C219.491 382.298 220.111 382.039 220.762 381.894C224.677 381.024 229.268 380.858 233.909 381.09C247.826 381.867 261.346 386.012 273.307 393.168L398.177 467.08L400.58 463.02L275.715 389.111C263.751 381.956 250.23 377.811 236.312 377.03V377.03Z" fill="black"/>
</g>
<g opacity="0.1">
<path opacity="0.1" d="M283.97 297.301C281.534 293.344 279.471 289.24 278.35 285.389C278.134 284.665 278.069 283.905 278.159 283.155C277.255 283.805 276.579 284.723 276.226 285.779C275.873 286.834 275.86 287.974 276.19 289.037C277.309 292.892 279.372 296.997 281.808 300.954C289.187 312.779 299.324 322.637 311.35 329.683L436.239 403.606L438.401 399.953L313.522 326.036C301.49 318.991 291.349 309.13 283.97 297.301V297.301Z" fill="black"/>
</g>
<path d="M431.423 505.171L431.239 505.482C430.371 506.947 428.958 508.008 427.308 508.431C425.659 508.854 423.909 508.604 422.444 507.737L397.136 492.757L403.861 481.396L429.168 496.376C430.634 497.243 431.694 498.657 432.117 500.306C432.54 501.956 432.29 503.706 431.423 505.171Z" fill="url(#paint3_linear)"/>
<path d="M453.275 468.254L453.088 468.57C452.22 470.034 450.806 471.093 449.157 471.515C447.509 471.937 445.76 471.687 444.295 470.82L418.988 455.84L425.71 444.484L451.017 459.464C452.482 460.33 453.542 461.743 453.965 463.392C454.389 465.04 454.14 466.789 453.275 468.254Z" fill="url(#paint4_linear)"/>
<path d="M466.959 445.135L466.769 445.455C465.9 446.916 464.486 447.972 462.839 448.392C461.192 448.812 459.445 448.562 457.983 447.696L432.676 432.716L439.397 421.36L464.705 436.34C466.17 437.207 467.231 438.621 467.653 440.27C468.076 441.92 467.826 443.669 466.959 445.135Z" fill="url(#paint5_linear)"/>
<path d="M489.052 407.811L488.873 408.112C488.444 408.839 487.877 409.475 487.202 409.982C486.528 410.49 485.76 410.859 484.942 411.069C484.125 411.28 483.274 411.327 482.438 411.208C481.603 411.089 480.799 410.806 480.072 410.377L454.765 395.397L461.487 384.041L486.794 399.02C488.259 399.887 489.319 401.3 489.742 402.948C490.166 404.597 489.917 406.345 489.052 407.811Z" fill="url(#paint6_linear)"/>
<path d="M154.538 270.766C153.481 270.942 152.475 271.346 151.591 271.951C150.707 272.557 149.967 273.348 149.421 274.27C148.875 275.192 148.538 276.222 148.432 277.288C148.327 278.355 148.456 279.431 148.811 280.442C150.6 286.026 153.77 292.04 157.488 297.861C168.546 315.048 184.025 329.615 202.122 340.327L402.535 458.953L432.856 407.726L231.639 288.623C214.054 278.215 194.423 271.767 174.623 270.158C165.248 269.361 158.796 269.918 154.538 270.766Z" fill="#EEEEEE"/>
<path d="M178.416 281.215L168.826 297.416C167.104 300.324 168.067 304.078 170.975 305.799L172.694 306.817C175.602 308.538 179.356 307.576 181.077 304.667L190.667 288.466C192.389 285.558 191.426 281.804 188.518 280.083L186.799 279.065C183.891 277.344 180.137 278.306 178.416 281.215Z" fill="#535461"/>
<g opacity="0.1">
<path opacity="0.1" d="M239.15 293.399L209.137 344.104L211.105 345.269L241.118 294.564L239.15 293.399Z" fill="black"/>
</g>
<path d="M364.717 248.348C362.184 248.644 359.735 249.44 357.512 250.69V250.69C354.961 252.129 352.775 254.134 351.122 256.552C349.47 258.97 348.396 261.736 347.983 264.635C347.57 267.534 347.829 270.49 348.74 273.273C349.652 276.056 351.191 278.592 353.239 280.686C355.288 282.779 357.79 284.373 360.552 285.345C363.315 286.317 366.264 286.641 369.172 286.291C372.08 285.941 374.868 284.927 377.321 283.328C379.775 281.729 381.827 279.586 383.321 277.067C383.527 276.718 383.734 276.368 383.897 276.005C385.464 272.933 386.168 269.493 385.937 266.052C385.705 262.611 384.546 259.297 382.583 256.462C380.619 253.627 377.924 251.376 374.784 249.95C371.644 248.523 368.176 247.974 364.749 248.36L364.717 248.348Z" fill="url(#paint7_linear)"/>
<path opacity="0.2" d="M376.049 251.791C379.998 254.129 382.909 257.885 384.188 262.293C385.468 266.701 385.02 271.431 382.936 275.521C382.746 275.842 382.584 276.192 382.389 276.522C380.979 278.908 379.039 280.936 376.719 282.452C374.399 283.967 371.761 284.928 369.01 285.261C366.26 285.594 363.469 285.289 360.855 284.37C358.241 283.451 355.873 281.943 353.935 279.962C351.997 277.982 350.541 275.582 349.679 272.948C348.818 270.315 348.574 267.518 348.966 264.775C349.359 262.032 350.377 259.416 351.943 257.13C353.508 254.843 355.579 252.948 357.995 251.59V251.59C360.104 250.409 362.428 249.661 364.83 249.391V249.391C368.731 248.944 372.672 249.787 376.049 251.791Z" fill="black"/>
<path opacity="0.1" d="M354.731 265.317C354.602 266.325 354.551 267.341 354.581 268.357C354.558 269.01 354.687 269.659 354.957 270.254C355.095 270.551 355.317 270.801 355.596 270.973C355.875 271.145 356.198 271.231 356.525 271.221C357.266 271.149 357.773 270.466 358.191 269.847C358.676 269.224 359.012 268.499 359.175 267.727C359.217 267.166 359.164 266.601 359.019 266.057L358.598 264.005C358.46 263.276 358.164 262.455 357.46 262.29C357.183 262.275 356.906 262.33 356.655 262.448C356.404 262.567 356.187 262.747 356.023 262.971C355.117 263.99 354.62 265.308 354.628 266.671" fill="black"/>
<g opacity="0.1">
<path opacity="0.1" d="M368.239 280.844C368.507 280.392 368.357 279.808 367.905 279.541C367.453 279.273 366.869 279.423 366.602 279.875C366.334 280.327 366.484 280.91 366.936 281.178C367.388 281.446 367.972 281.296 368.239 280.844Z" fill="black"/>
</g>
<g opacity="0.1">
<path opacity="0.1" d="M375.076 262.445C376.056 260.789 375.509 258.653 373.853 257.674C372.198 256.694 370.062 257.241 369.082 258.897C368.103 260.552 368.65 262.688 370.305 263.668C371.961 264.647 374.097 264.1 375.076 262.445Z" fill="black"/>
</g>
<g opacity="0.1">
<path opacity="0.1" d="M364.847 249.362C365.626 249.835 366.252 250.521 366.651 251.34C367.051 252.158 367.207 253.074 367.1 253.978C366.994 254.882 366.63 255.737 366.052 256.441C365.474 257.144 364.706 257.667 363.839 257.946C362.972 258.225 362.044 258.25 361.163 258.016C360.283 257.783 359.489 257.301 358.874 256.629C358.26 255.957 357.852 255.122 357.698 254.225C357.545 253.327 357.653 252.404 358.009 251.566V251.566C360.118 250.383 362.443 249.634 364.847 249.362Z" fill="black"/>
</g>
<g opacity="0.1">
<path opacity="0.1" d="M383.314 259.918C384.426 262.381 384.969 265.062 384.903 267.763C384.838 270.464 384.166 273.115 382.936 275.521C382.721 275.393 382.488 275.294 382.268 275.164C380.905 274.356 379.794 273.185 379.058 271.782C378.321 270.379 377.989 268.8 378.097 267.219C378.206 265.639 378.751 264.119 379.672 262.83C380.593 261.541 381.854 260.533 383.314 259.918V259.918Z" fill="black"/>
</g>
<path d="M327.789 513.069C326.015 513.27 324.298 513.823 322.74 514.696V514.696C320.942 515.692 319.398 517.089 318.229 518.779C317.059 520.47 316.296 522.407 315.998 524.441C315.7 526.475 315.876 528.55 316.511 530.504C317.146 532.459 318.225 534.241 319.661 535.71C321.098 537.18 322.855 538.298 324.795 538.978C326.735 539.657 328.805 539.88 330.845 539.628C332.885 539.376 334.839 538.657 336.555 537.526C338.272 536.395 339.704 534.883 340.74 533.108C340.885 532.864 341.023 532.629 341.147 532.366C342.229 530.221 342.712 527.824 342.546 525.427C342.38 523.031 341.569 520.723 340.201 518.748C338.833 516.773 336.957 515.204 334.772 514.206C332.586 513.208 330.172 512.819 327.784 513.078L327.789 513.069Z" fill="url(#paint8_linear)"/>
<path opacity="0.2" d="M335.695 515.472C338.451 517.104 340.481 519.724 341.374 522.8C342.266 525.875 341.954 529.175 340.5 532.029C340.367 532.254 340.216 532.507 340.095 532.713C339.11 534.375 337.757 535.789 336.139 536.844C334.521 537.9 332.682 538.569 330.764 538.8C328.846 539.031 326.901 538.818 325.079 538.177C323.256 537.536 321.606 536.485 320.255 535.104C318.904 533.723 317.888 532.051 317.287 530.215C316.686 528.379 316.515 526.43 316.788 524.517C317.06 522.605 317.769 520.781 318.859 519.186C319.949 517.591 321.392 516.269 323.075 515.321V515.321C324.551 514.497 326.177 513.977 327.857 513.794C330.583 513.48 333.337 514.07 335.695 515.472V515.472Z" fill="black"/>
<path opacity="0.1" d="M320.823 524.914C320.73 525.615 320.694 526.322 320.716 527.029C320.704 527.485 320.794 527.937 320.978 528.354C321.08 528.558 321.239 528.728 321.435 528.845C321.631 528.961 321.856 529.018 322.084 529.009C322.335 528.943 322.569 528.823 322.769 528.658C322.969 528.493 323.131 528.287 323.244 528.054C323.584 527.619 323.819 527.113 323.933 526.573C323.963 526.18 323.926 525.784 323.824 525.403L323.531 523.976C323.427 523.475 323.235 522.882 322.738 522.782C322.544 522.766 322.349 522.801 322.173 522.884C321.997 522.967 321.845 523.095 321.734 523.255C321.103 523.963 320.758 524.881 320.766 525.83" fill="black"/>
<g opacity="0.1">
<path opacity="0.1" d="M330.239 535.743C330.426 535.429 330.321 535.022 330.007 534.836C329.692 534.65 329.286 534.754 329.1 535.069C328.914 535.383 329.018 535.789 329.332 535.976C329.647 536.162 330.053 536.058 330.239 535.743Z" fill="black"/>
</g>
<g opacity="0.1">
<path opacity="0.1" d="M335.018 522.907C335.702 521.752 335.32 520.261 334.165 519.577C333.009 518.893 331.518 519.275 330.834 520.431C330.15 521.586 330.532 523.077 331.688 523.761C332.843 524.445 334.334 524.063 335.018 522.907Z" fill="black"/>
</g>
<g opacity="0.1">
<path opacity="0.1" d="M327.87 513.795C328.419 514.126 328.862 514.608 329.144 515.184C329.427 515.76 329.537 516.405 329.463 517.042C329.388 517.678 329.132 518.28 328.724 518.776C328.317 519.271 327.775 519.638 327.165 519.833C326.554 520.029 325.9 520.044 325.28 519.878C324.661 519.711 324.103 519.37 323.673 518.894C323.242 518.419 322.958 517.83 322.854 517.197C322.749 516.564 322.83 515.915 323.085 515.326C324.561 514.5 326.188 513.979 327.87 513.795V513.795Z" fill="black"/>
</g>
<g opacity="0.1">
<path opacity="0.1" d="M340.763 521.142C341.538 522.86 341.917 524.731 341.872 526.615C341.826 528.5 341.357 530.35 340.5 532.029C340.351 531.941 340.198 531.85 340.021 531.745C339.07 531.181 338.295 530.365 337.781 529.386C337.267 528.407 337.035 527.305 337.111 526.202C337.187 525.1 337.567 524.04 338.209 523.14C338.852 522.241 339.732 521.538 340.75 521.109L340.763 521.142Z" fill="black"/>
</g>
<path d="M476.502 189.185C476.789 188.698 476.629 188.071 476.142 187.783C475.655 187.495 475.028 187.656 474.74 188.142C474.452 188.629 474.613 189.256 475.099 189.544C475.586 189.832 476.214 189.671 476.502 189.185Z" fill="white"/>
</g>
<defs>
<linearGradient id="paint0_linear" x1="412.374" y1="589.189" x2="399.165" y2="581.371" gradientUnits="userSpaceOnUse">
<stop stop-color="#808080" stop-opacity="0.25"/>
<stop offset="0.54" stop-color="#808080" stop-opacity="0.12"/>
<stop offset="1" stop-color="#808080" stop-opacity="0.1"/>
</linearGradient>
<linearGradient id="paint1_linear" x1="11610.1" y1="-4223.46" x2="11356.1" y2="-4373.83" gradientUnits="userSpaceOnUse">
<stop stop-color="#808080" stop-opacity="0.25"/>
<stop offset="0.54" stop-color="#808080" stop-opacity="0.12"/>
<stop offset="1" stop-color="#808080" stop-opacity="0.1"/>
</linearGradient>
<linearGradient id="paint2_linear" x1="270892" y1="55897.9" x2="59651.6" y2="-69137.7" gradientUnits="userSpaceOnUse">
<stop stop-color="#808080" stop-opacity="0.25"/>
<stop offset="0.54" stop-color="#808080" stop-opacity="0.12"/>
<stop offset="1" stop-color="#808080" stop-opacity="0.1"/>
</linearGradient>
<linearGradient id="paint3_linear" x1="400.5" y1="487.074" x2="431.332" y2="505.324" gradientUnits="userSpaceOnUse">
<stop stop-color="#E0E0E0"/>
<stop offset="0.31" stop-color="#FCCC63"/>
<stop offset="0.77" stop-color="#F55F44"/>
</linearGradient>
<linearGradient id="paint4_linear" x1="23375.6" y1="5854.55" x2="25361.2" y2="7029.83" gradientUnits="userSpaceOnUse">
<stop stop-color="#E0E0E0"/>
<stop offset="0.31" stop-color="#FCCC63"/>
<stop offset="0.77" stop-color="#F55F44"/>
</linearGradient>
<linearGradient id="paint5_linear" x1="23713.9" y1="5282.91" x2="25699.5" y2="6458.19" gradientUnits="userSpaceOnUse">
<stop stop-color="#E0E0E0"/>
<stop offset="0.31" stop-color="#FCCC63"/>
<stop offset="0.77" stop-color="#F55F44"/>
</linearGradient>
<linearGradient id="paint6_linear" x1="24260" y1="4360.38" x2="26245.6" y2="5535.67" gradientUnits="userSpaceOnUse">
<stop stop-color="#E0E0E0"/>
<stop offset="0.31" stop-color="#FCCC63"/>
<stop offset="0.77" stop-color="#F55F44"/>
</linearGradient>
<linearGradient id="paint7_linear" x1="28693" y1="-16936.6" x2="26436" y2="-18272.5" gradientUnits="userSpaceOnUse">
<stop stop-color="#808080" stop-opacity="0.25"/>
<stop offset="0.54" stop-color="#808080" stop-opacity="0.12"/>
<stop offset="1" stop-color="#808080" stop-opacity="0.1"/>
</linearGradient>
<linearGradient id="paint8_linear" x1="18098.1" y1="775.157" x2="16997.1" y2="123.468" gradientUnits="userSpaceOnUse">
<stop stop-color="#808080" stop-opacity="0.25"/>
<stop offset="0.54" stop-color="#808080" stop-opacity="0.12"/>
<stop offset="1" stop-color="#808080" stop-opacity="0.1"/>
</linearGradient>
<clipPath id="clip0">
<rect y="524.477" width="631.547" height="452.984" transform="rotate(-59.3782 0 524.477)" fill="white"/>
</clipPath>
</defs>
</svg>
